# xmcd
#
# Track frame offsets:
#	150
#	21882
#	40517
#	59835
#	75505
#	93697
#	113085
#	137740
#	158452
#	179172
#	201577
#	227287
#
# Disc length: 3485 seconds
#
# Revision: 1
# Processed by: cddbd v1.4PL0 Copyright (c) Steve Scherf et al.
# Submitted via: CDRider 2.0
#
DISCID=9c0d9b0c
DTITLE=Virna Langford - Time To Move On
DYEAR=2000
DGENRE=R&B
TTITLE0=Time To Move On
TTITLE1=Love Won't
TTITLE2=Da Dream
TTITLE3=Summer Land
TTITLE4=Do Ya
TTITLE5=New Girl In Town
TTITLE6=It's The Money
TTITLE7=12 Days
TTITLE8=Our Song
TTITLE9=Once In A Lifetime
TTITLE10=With His Love
TTITLE11=Time To Move On (Extended Remake)
EXTD=
EXTT0=
EXTT1=
EXTT2=
EXTT3=
EXTT4=
EXTT5=
EXTT6=
EXTT7=
EXTT8=
EXTT9=
EXTT10=
EXTT11=
PLAYORDER=
